<svg width="65" height="74" viewBox="0 0 65 74" fill="none" xmlns="http://www.w3.org/2000/svg">
<path d="M6.50006 63.5C4.00006 63.5 2.00006 65.5 2.00006 68C2.00006 70.5 4.00006 72.5 6.50006 72.5C9.00006 72.5 11.0001 70.5 11.0001 68C11.0001 65.5 9.00006 63.5 6.50006 63.5Z" fill="#6016FC"/>
<path d="M3.50006 68C3.50006 66.3284 4.82849 65 6.50006 65V62C3.17163 62 0.500061 64.6716 0.500061 68H3.50006ZM6.50006 65C8.17163 65 9.50006 66.3284 9.50006 68H12.5001C12.5001 64.6716 9.82849 62 6.50006 62V65ZM9.50006 68C9.50006 69.6716 8.17163 71 6.50006 71V74C9.82849 74 12.5001 71.3284 12.5001 68H9.50006ZM6.50006 71C4.82849 71 3.50006 69.6716 3.50006 68H0.500061C0.500061 71.3284 3.17163 74 6.50006 74V71ZM8.00006 63.5V54H5.00006V63.5H8.00006ZM26.5001 35.5H43.0001V32.5H26.5001V35.5ZM64.5001 14V0H61.5001V14H64.5001ZM43.0001 35.5C54.8742 35.5 64.5001 25.8741 64.5001 14H61.5001C61.5001 24.2173 53.2173 32.5 43.0001 32.5V35.5ZM8.00006 54C8.00006 43.7827 16.2828 35.5 26.5001 35.5V32.5C14.6259 32.5 5.00006 42.1259 5.00006 54H8.00006Z" fill="white" fill-opacity="0.1"/>
</svg>
