<svg width="574" height="567" viewBox="0 0 574 567" fill="none" xmlns="http://www.w3.org/2000/svg">
<g filter="url(#filter0_d_0_2046)">
<rect x="136" y="47" width="341" height="425" rx="12" fill="#0C9FB3"/>
</g>
<path d="M183.668 451.589V128.242H413.291" stroke="white" stroke-width="2" stroke-dasharray="8.52 8.52"/>
<circle cx="183.242" cy="128.242" r="7.24228" fill="white"/>
<circle cx="183.242" cy="434.122" r="7.24228" fill="white"/>
<circle cx="183.24" cy="389.24" r="4.24" fill="white"/>
<circle cx="183.24" cy="320.24" r="4.24" fill="white"/>
<circle cx="183.24" cy="251.24" r="4.24" fill="white"/>
<circle cx="183.24" cy="190.24" r="4.24" fill="white"/>
<rect x="153" y="82" width="308" height="138" rx="8" fill="white" fill-opacity="0.21"/>
<rect x="153" y="234" width="308" height="58" rx="8" fill="white" fill-opacity="0.21"/>
<rect x="153" y="310" width="308" height="58" rx="8" fill="white" fill-opacity="0.21"/>
<rect x="153" y="386" width="308" height="58" rx="8" fill="white" fill-opacity="0.21"/>
<g filter="url(#filter1_d_0_2046)">
<rect x="35" y="326" width="198" height="177" rx="12" fill="#09566E"/>
</g>
<path d="M110.602 387.124V63.7773H340.224" stroke="white" stroke-width="2" stroke-dasharray="8.52 8.52"/>
<circle cx="110.176" cy="63.7774" r="7.24228" fill="white"/>
<circle cx="110.176" cy="369.657" r="7.24228" fill="white"/>
<circle cx="110.24" cy="344.24" r="4.24" fill="white"/>
<circle cx="110.24" cy="275.24" r="4.24" fill="white"/>
<circle cx="110.24" cy="206.24" r="4.24" fill="white"/>
<circle cx="110.24" cy="145.24" r="4.24" fill="white"/>
<rect x="54" y="270" width="52.1429" height="54.8996" rx="3" fill="white" fill-opacity="0.26"/>
<rect x="112" y="270" width="52.1429" height="54.8996" rx="3" fill="white" fill-opacity="0.12"/>
<rect x="54" y="348.685" width="140" height="6.76844" fill="white"/>
<rect x="54" y="365.229" width="140" height="6.76844" fill="white" fill-opacity="0.78"/>
<rect x="54" y="381.774" width="140" height="6.76844" fill="white" fill-opacity="0.6"/>
<rect x="54" y="398.32" width="106.429" height="6.76844" fill="white" fill-opacity="0.44"/>
<rect x="342" y="22" width="204.488" height="272.65" rx="12" fill="#D8E9F3"/>
<rect x="391.35" width="181" height="163" rx="6" fill="white"/>
<rect x="391.35" y="174" width="182" height="12" fill="white"/>
<rect x="391.35" y="195" width="182" height="12" fill="white" fill-opacity="0.69"/>
<rect x="391.35" y="216" width="121" height="12" fill="white" fill-opacity="0.41"/>
<defs>
<filter id="filter0_d_0_2046" x="93.3984" y="38.4797" width="426.203" height="510.203" filterUnits="userSpaceOnUse" color-interpolation-filters="sRGB">
<feFlood flood-opacity="0" result="BackgroundImageFix"/>
<feColorMatrix in="SourceAlpha" type="matrix" values="0 0 0 0 0 0 0 0 0 0 0 0 0 0 0 0 0 0 127 0" result="hardAlpha"/>
<feOffset dy="34.0813"/>
<feGaussianBlur stdDeviation="21.3008"/>
<feColorMatrix type="matrix" values="0 0 0 0 0.133819 0 0 0 0 0.173145 0 0 0 0 0.257847 0 0 0 1 0"/>
<feBlend mode="normal" in2="BackgroundImageFix" result="effect1_dropShadow_0_2046"/>
<feBlend mode="normal" in="SourceGraphic" in2="effect1_dropShadow_0_2046" result="shape"/>
</filter>
<filter id="filter1_d_0_2046" x="0.918701" y="321.74" width="266.163" height="245.163" filterUnits="userSpaceOnUse" color-interpolation-filters="sRGB">
<feFlood flood-opacity="0" result="BackgroundImageFix"/>
<feColorMatrix in="SourceAlpha" type="matrix" values="0 0 0 0 0 0 0 0 0 0 0 0 0 0 0 0 0 0 127 0" result="hardAlpha"/>
<feOffset dy="29.8211"/>
<feGaussianBlur stdDeviation="17.0406"/>
<feColorMatrix type="matrix" values="0 0 0 0 0.158889 0 0 0 0 0.219245 0 0 0 0 0.374444 0 0 0 0.11 0"/>
<feBlend mode="normal" in2="BackgroundImageFix" result="effect1_dropShadow_0_2046"/>
<feBlend mode="normal" in="SourceGraphic" in2="effect1_dropShadow_0_2046" result="shape"/>
</filter>
</defs>
</svg>
