<svg width="40" height="95" viewBox="0 0 40 95" fill="none" xmlns="http://www.w3.org/2000/svg">
<path d="M6.93689 83.9316C4.43689 83.9316 2.43689 85.9316 2.43689 88.4316C2.43689 90.9316 4.43689 92.9316 6.93689 92.9316C9.43689 92.9316 11.4369 90.9316 11.4369 88.4316C11.4369 85.9316 9.43689 83.9316 6.93689 83.9316Z" fill="#6016FC"/>
<path d="M3.93689 88.4316C3.93689 86.76 5.26532 85.4316 6.93689 85.4316V82.4316C3.60846 82.4316 0.93689 85.1032 0.93689 88.4316H3.93689ZM6.93689 85.4316C8.60846 85.4316 9.93689 86.76 9.93689 88.4316H12.9369C12.9369 85.1032 10.2653 82.4316 6.93689 82.4316V85.4316ZM9.93689 88.4316C9.93689 90.1032 8.60846 91.4316 6.93689 91.4316V94.4316C10.2653 94.4316 12.9369 91.76 12.9369 88.4316H9.93689ZM6.93689 91.4316C5.26532 91.4316 3.93689 90.1032 3.93689 88.4316H0.93689C0.93689 91.76 3.60846 94.4316 6.93689 94.4316V91.4316ZM24.9664 76.4021V18.8168H21.9664V76.4021H24.9664ZM24.9664 18.8168C24.9664 10.5163 31.6953 3.78735 39.9958 3.78735V0.787354C30.0384 0.787354 21.9664 8.85942 21.9664 18.8168H24.9664ZM11.4369 89.9316C18.909 89.9316 24.9664 83.8743 24.9664 76.4021H21.9664C21.9664 82.2174 17.2522 86.9316 11.4369 86.9316V89.9316Z" fill="#222234"/>
</svg>
