<svg width="147" height="28" viewBox="0 0 147 28" fill="none" xmlns="http://www.w3.org/2000/svg">
<path d="M6.00427 2.00098C3.50427 2.00098 1.50427 4.00098 1.50427 6.50098C1.50427 9.00098 3.50427 11.001 6.00427 11.001C8.50427 11.001 10.5043 9.00098 10.5043 6.50098C10.5043 4.00098 8.50427 2.00098 6.00427 2.00098Z" fill="#6016FC"/>
<path d="M3.00427 6.50098C3.00427 4.8294 4.3327 3.50098 6.00427 3.50098V0.500977C2.67585 0.500977 0.00427246 3.17255 0.00427246 6.50098H3.00427ZM6.00427 3.50098C7.67585 3.50098 9.00427 4.8294 9.00427 6.50098H12.0043C12.0043 3.17255 9.3327 0.500977 6.00427 0.500977V3.50098ZM9.00427 6.50098C9.00427 8.17255 7.67585 9.50098 6.00427 9.50098V12.501C9.3327 12.501 12.0043 9.8294 12.0043 6.50098H9.00427ZM6.00427 9.50098C4.3327 9.50098 3.00427 8.17255 3.00427 6.50098H0.00427246C0.00427246 9.8294 2.67585 12.501 6.00427 12.501V9.50098ZM10.5043 8.00098H125.497V5.00098H10.5043V8.00098ZM143.997 26.501V27.9999H146.997V26.501H143.997ZM125.497 8.00098C135.714 8.00098 143.997 16.2837 143.997 26.501H146.997C146.997 14.6269 137.371 5.00098 125.497 5.00098V8.00098Z" fill="#222234"/>
</svg>
