<svg width="32" height="352" viewBox="0 0 32 352" fill="none" xmlns="http://www.w3.org/2000/svg">
<line x1="15.993" y1="210.007" x2="15.0208" y2="350.007" stroke="white" stroke-width="2" stroke-linecap="round"/>
<path d="M17.3332 26.5838C20.023 26.2416 22.4814 24.888 24.209 22.7982C25.9365 20.7084 26.8035 18.0392 26.6337 15.3331C26.464 12.627 25.2701 10.0872 23.2949 8.22968C21.3197 6.3722 18.7113 5.33653 15.9999 5.33317C13.2852 5.33115 10.6718 6.36429 8.69235 8.22207C6.71287 10.0799 5.51622 12.6225 5.34622 15.3319C5.17623 18.0413 6.04568 20.7135 7.77742 22.8042C9.50917 24.8948 11.9729 26.2465 14.6666 26.5838V18.6665H11.9999V15.9998H14.6666V13.7945C14.6666 12.0118 14.8532 11.3652 15.1999 10.7132C15.5414 10.0681 16.0692 9.54075 16.7146 9.19984C17.2239 8.9265 17.8572 8.7625 18.9639 8.69184C19.4026 8.66384 19.9706 8.6985 20.6679 8.7985V11.3318H19.9999C18.7772 11.3318 18.2719 11.3892 17.9706 11.5505C17.7908 11.643 17.6444 11.7894 17.5519 11.9692C17.3919 12.2705 17.3332 12.5692 17.3332 13.7932V15.9998H20.6666L19.9999 18.6665H17.3332V26.5838ZM15.9999 29.3332C8.6359 29.3332 2.66656 23.3638 2.66656 15.9998C2.66656 8.63584 8.6359 2.6665 15.9999 2.6665C23.3639 2.6665 29.3332 8.63584 29.3332 15.9998C29.3332 23.3638 23.3639 29.3332 15.9999 29.3332Z" fill="#E3E6FF"/>
<path d="M16 83.9998C14.9391 83.9998 13.9217 84.4213 13.1716 85.1714C12.4214 85.9216 12 86.939 12 87.9998C12 89.0607 12.4214 90.0781 13.1716 90.8283C13.9217 91.5784 14.9391 91.9998 16 91.9998C17.0609 91.9998 18.0783 91.5784 18.8284 90.8283C19.5786 90.0781 20 89.0607 20 87.9998C20 86.939 19.5786 85.9216 18.8284 85.1714C18.0783 84.4213 17.0609 83.9998 16 83.9998ZM16 81.3332C17.7681 81.3332 19.4638 82.0355 20.714 83.2858C21.9643 84.536 22.6667 86.2317 22.6667 87.9998C22.6667 89.7679 21.9643 91.4636 20.714 92.7139C19.4638 93.9641 17.7681 94.6665 16 94.6665C14.2319 94.6665 12.5362 93.9641 11.2859 92.7139C10.0357 91.4636 9.33332 89.7679 9.33332 87.9998C9.33332 86.2317 10.0357 84.536 11.2859 83.2858C12.5362 82.0355 14.2319 81.3332 16 81.3332ZM24.6667 80.9998C24.6667 81.4419 24.4911 81.8658 24.1785 82.1783C23.8659 82.4909 23.442 82.6665 23 82.6665C22.558 82.6665 22.134 82.4909 21.8215 82.1783C21.5089 81.8658 21.3333 81.4419 21.3333 80.9998C21.3333 80.5578 21.5089 80.1339 21.8215 79.8213C22.134 79.5088 22.558 79.3332 23 79.3332C23.442 79.3332 23.8659 79.5088 24.1785 79.8213C24.4911 80.1339 24.6667 80.5578 24.6667 80.9998ZM16 77.3332C12.7013 77.3332 12.1627 77.3425 10.628 77.4105C9.58266 77.4598 8.88132 77.5998 8.23066 77.8532C7.65199 78.0772 7.23466 78.3452 6.79066 78.7905C6.37333 79.1937 6.05246 79.6859 5.85199 80.2305C5.59866 80.8838 5.45866 81.5838 5.41066 82.6278C5.34132 84.0998 5.33332 84.6145 5.33332 87.9998C5.33332 91.2985 5.34266 91.8372 5.41066 93.3718C5.45999 94.4158 5.59999 95.1185 5.85199 95.7678C6.07866 96.3478 6.34532 96.7652 6.78799 97.2078C7.23732 97.6558 7.65466 97.9238 8.22799 98.1452C8.88666 98.3998 9.58799 98.5412 10.628 98.5892C12.1 98.6585 12.6147 98.6665 16 98.6665C19.2987 98.6665 19.8373 98.6572 21.372 98.5892C22.4147 98.5398 23.1173 98.3998 23.768 98.1478C24.3453 97.9225 24.7653 97.6545 25.208 97.2118C25.6573 96.7625 25.9253 96.3452 26.1467 95.7718C26.4 95.1145 26.5413 94.4118 26.5893 93.3718C26.6587 91.8998 26.6667 91.3852 26.6667 87.9998C26.6667 84.7012 26.6573 84.1625 26.5893 82.6278C26.54 81.5852 26.4 80.8812 26.1467 80.2305C25.9457 79.6865 25.6254 79.1945 25.2093 78.7905C24.8063 78.373 24.314 78.0521 23.7693 77.8518C23.116 77.5985 22.4147 77.4585 21.372 77.4105C19.9 77.3412 19.3853 77.3332 16 77.3332ZM16 74.6665C19.6227 74.6665 20.0747 74.6798 21.496 74.7465C22.916 74.8132 23.8827 75.0358 24.7333 75.3665C25.6133 75.7052 26.3547 76.1638 27.096 76.9038C27.774 77.5704 28.2986 78.3766 28.6333 79.2665C28.9627 80.1158 29.1867 81.0838 29.2533 82.5038C29.316 83.9252 29.3333 84.3772 29.3333 87.9998C29.3333 91.6225 29.32 92.0745 29.2533 93.4958C29.1867 94.9158 28.9627 95.8825 28.6333 96.7332C28.2996 97.6235 27.7748 98.43 27.096 99.0958C26.4293 99.7736 25.6231 100.298 24.7333 100.633C23.884 100.963 22.916 101.187 21.496 101.253C20.0747 101.316 19.6227 101.333 16 101.333C12.3773 101.333 11.9253 101.32 10.504 101.253C9.08399 101.187 8.11732 100.963 7.26666 100.633C6.37642 100.299 5.57003 99.7744 4.90399 99.0958C4.22587 98.4294 3.70123 97.6231 3.36666 96.7332C3.03599 95.8838 2.81332 94.9158 2.74666 93.4958C2.68399 92.0745 2.66666 91.6225 2.66666 87.9998C2.66666 84.3772 2.67999 83.9252 2.74666 82.5038C2.81332 81.0825 3.03599 80.1172 3.36666 79.2665C3.7003 78.3761 4.22506 77.5696 4.90399 76.9038C5.57022 76.2255 6.37656 75.7008 7.26666 75.3665C8.11732 75.0358 9.08266 74.8132 10.504 74.7465C11.9253 74.6838 12.3773 74.6665 16 74.6665Z" fill="#E3E6FF"/>
<path d="M20.4 151.4C19.3866 151.4 18.4137 151.797 17.6906 152.507C16.9674 153.217 16.5519 154.183 16.5333 155.196L16.496 157.296C16.4938 157.409 16.4678 157.52 16.4197 157.622C16.3716 157.724 16.3025 157.814 16.2169 157.888C16.1313 157.961 16.0311 158.016 15.9229 158.048C15.8148 158.079 15.7011 158.088 15.5894 158.073L13.508 157.79C10.7694 157.417 8.14535 156.156 5.62802 154.058C4.83068 158.472 6.38802 161.529 10.1387 163.888L12.468 165.352C12.5787 165.421 12.6706 165.517 12.7358 165.63C12.801 165.744 12.8374 165.871 12.8419 166.002C12.8463 166.132 12.8187 166.262 12.7615 166.38C12.7042 166.497 12.619 166.599 12.5133 166.676L10.3907 168.226C11.6533 168.305 12.852 168.249 13.8467 168.052C20.1374 166.796 24.32 162.062 24.32 154.254C24.32 153.617 22.9707 151.4 20.4 151.4ZM13.8667 155.146C13.89 153.861 14.2919 152.611 15.0221 151.553C15.7523 150.496 16.7784 149.677 17.9719 149.199C19.1654 148.721 20.4732 148.607 21.7317 148.869C22.9901 149.131 24.1433 149.759 25.0467 150.673C25.9947 150.666 26.8013 150.906 28.6054 149.813C28.1587 152 27.9387 152.949 26.9867 154.254C26.9867 164.444 20.724 169.398 14.3693 170.666C10.012 171.536 3.67602 170.108 1.86002 168.212C2.78535 168.14 6.54535 167.736 8.71868 166.145C6.88002 164.933 -0.438651 160.626 4.37068 149.048C6.62802 151.684 8.91735 153.478 11.2374 154.43C12.7814 155.064 13.16 155.05 13.868 155.148L13.8667 155.146Z" fill="#E3E6FF"/>
</svg>
