<svg width="45" height="59" viewBox="0 0 45 59" fill="none" xmlns="http://www.w3.org/2000/svg">
<path d="M39.0001 1.5C36.5001 1.5 34.5001 3.5 34.5001 6C34.5001 8.5 36.5001 10.5 39.0001 10.5C41.5001 10.5 43.5001 8.5 43.5001 6C43.5001 3.5 41.5001 1.5 39.0001 1.5Z" fill="#6016FC"/>
<path d="M36.0001 6C36.0001 4.32843 37.3285 3 39.0001 3V0C35.6717 0 33.0001 2.67157 33.0001 6H36.0001ZM39.0001 3C40.6717 3 42.0001 4.32843 42.0001 6H45.0001C45.0001 2.67157 42.3285 0 39.0001 0V3ZM42.0001 6C42.0001 7.67157 40.6717 9 39.0001 9V12C42.3285 12 45.0001 9.32843 45.0001 6H42.0001ZM39.0001 9C37.3285 9 36.0001 7.67157 36.0001 6H33.0001C33.0001 9.32843 35.6717 12 39.0001 12V9ZM34.5001 4.5H22.0001V7.5H34.5001V4.5ZM0.500122 26V59H3.50012V26H0.500122ZM22.0001 4.5C10.126 4.5 0.500122 14.1259 0.500122 26H3.50012C3.50012 15.7827 11.7829 7.5 22.0001 7.5V4.5Z" fill="white" fill-opacity="0.1"/>
</svg>
